<svg xmlns="http://www.w3.org/2000/svg" xmlns:xlink="http://www.w3.org/1999/xlink" fill="none" version="1.1" width="42.36330032348633" height="37.00199890136719" viewBox="0 0 42.36330032348633 37.00199890136719"><defs><clipPath id="master_svg0_2203_05459"><rect x="0" y="0" width="42.36330032348633" height="37.00199890136719" rx="0"/></clipPath></defs><g clip-path="url(#master_svg0_2203_05459)"><g><g style="opacity:0;"><rect x="0" y="0" width="42.36330032348633" height="37.00199890136719" rx="0" fill="#000000" fill-opacity="1" style="mix-blend-mode:passthrough"/></g><g><path d="M15.8906,35.1562L26.085899,35.1562L26.085899,23.8008C26.085899,22.992201,25.558599,22.4648,24.75,22.4648L17.244101,22.4648C16.435499,22.4648,15.8906,22.992201,15.8906,23.8008L15.8906,35.1562ZM1.5117199,18.773399C2.0039101,18.773399,2.4082,18.5098,2.7773399,18.210899L20.372999,3.4277301C20.566401,3.2695301,20.794901,3.1816399,20.9883,3.1816399C21.1992,3.1816399,21.4102,3.2695301,21.6035,3.4277301L39.216801,18.210899C39.568401,18.5098,39.972698,18.773399,40.464802,18.773399C41.414101,18.773399,41.976601,18.0879,41.976601,17.367201C41.976601,16.9629,41.818401,16.541,41.414101,16.2246L23.0977,0.84375C22.429701,0.28125,21.709,0,20.9883,0C20.267599,0,19.5469,0.28125,18.878901,0.84375L0.5625,16.2246C0.175781,16.541,0,16.9629,0,17.367201C0,18.0879,0.5625,18.773399,1.5117199,18.773399ZM32.431599,9.4394503L36.8438,13.166L36.8438,5.2382798C36.8438,4.4648399,36.351601,3.9726601,35.578098,3.9726601L33.6973,3.9726601C32.941399,3.9726601,32.431599,4.4648399,32.431599,5.2382798L32.431599,9.4394503ZM9.1054697,36.966801L32.888699,36.966801C35.3848,36.966801,36.8438,35.542999,36.8438,33.082001L36.8438,13.6055L34.013699,11.6895L34.013699,32.378899C34.013699,33.5215,33.398399,34.1367,32.291,34.1367L9.7031202,34.1367C8.5781202,34.1367,7.9628901,33.5215,7.9628901,32.378899L7.9628901,11.707L5.1328101,13.6055L5.1328101,33.082001C5.1328101,35.560501,6.5918002,36.966801,9.1054697,36.966801Z" fill="#FFFFFF" fill-opacity="0.8500000238418579" style="mix-blend-mode:passthrough"/></g></g></g></svg>