<svg xmlns="http://www.w3.org/2000/svg" xmlns:xlink="http://www.w3.org/1999/xlink" fill="none" version="1.1" width="41.835899353027344" height="32.36130142211914" viewBox="0 0 41.835899353027344 32.36130142211914"><defs><clipPath id="master_svg0_2203_05467"><rect x="0" y="0" width="41.835899353027344" height="32.36130142211914" rx="0"/></clipPath></defs><g clip-path="url(#master_svg0_2203_05467)"><g><g style="opacity:0;"><rect x="0" y="0" width="41.835899353027344" height="32.36130142211914" rx="0" fill="#000000" fill-opacity="1" style="mix-blend-mode:passthrough"/></g><g><path d="M5.5195298,32.361301L35.929699,32.361301C39.621101,32.361301,41.4492,30.5508,41.4492,26.929701L41.4492,5.4492202C41.4492,1.82812,39.621101,0,35.929699,0L5.5195298,0C1.8457,0,0,1.82812,0,5.4492202L0,26.929701C0,30.5508,1.8457,32.361301,5.5195298,32.361301ZM5.5546899,29.5312C3.79688,29.5312,2.83008,28.5996,2.83008,26.7715L2.83008,5.60742C2.83008,3.7793,3.79688,2.83008,5.5546899,2.83008L35.894501,2.83008C37.6348,2.83008,38.619099,3.7793,38.619099,5.60742L38.619099,26.7715C38.619099,28.5996,37.6348,29.5312,35.894501,29.5312L5.5546899,29.5312Z" fill="#FFFFFF" fill-opacity="0.8500000238418579" style="mix-blend-mode:passthrough"/></g><g><path d="M8.789059631628419,10.0194998L10.916000331628418,10.0194998C11.654299731628418,10.0194998,12.269499731628418,9.4042997,12.269499731628418,8.6660204C12.269499731628418,7.92773008,11.636699631628417,7.3125,10.916000331628418,7.3125L8.789059631628419,7.3125C8.033200261628417,7.3125,7.453120231628418,7.92773008,7.453120231628418,8.6660204C7.453120231628418,9.4042997,8.050780291628419,10.0194998,8.789059631628419,10.0194998ZM8.789059631628419,15.8730001L10.916000331628418,15.8730001C11.636699631628417,15.8730001,12.269499731628418,15.2754002,12.269499731628418,14.5370998C12.269499731628418,13.798800499999999,11.654299731628418,13.201199500000001,10.916000331628418,13.201199500000001L8.789059631628419,13.201199500000001C8.033200261628417,13.201199500000001,7.453120231628418,13.798800499999999,7.453120231628418,14.5370998C7.453120231628418,15.2754002,8.033200261628417,15.8730001,8.789059631628419,15.8730001ZM15.837900131628418,9.7734404L32.88869723162841,9.7734404C33.503897231628414,9.7734404,33.97849923162842,9.28125,33.97849923162842,8.6660204C33.97849923162842,8.0507803,33.503897231628414,7.57616997,32.88869723162841,7.57616997L15.837900131628418,7.57616997C15.222700131628418,7.57616997,14.748000131628418,8.0507803,14.748000131628418,8.6660204C14.748000131628418,9.28125,15.222700131628418,9.7734404,15.837900131628418,9.7734404ZM15.837900131628418,15.6444998L32.88869723162841,15.6444998C33.503897231628414,15.6444998,33.97849923162842,15.1698999,33.97849923162842,14.5370998C33.97849923162842,13.9218998,33.503897231628414,13.4296999,32.88869723162841,13.4296999L15.837900131628418,13.4296999C15.240200031628419,13.4296999,14.748000131628418,13.9042997,14.748000131628418,14.5370998C14.748000131628418,15.1522999,15.222700131628418,15.6444998,15.837900131628418,15.6444998Z" fill="#FFFFFF" fill-opacity="0.8500000238418579" style="mix-blend-mode:passthrough"/></g></g></g></svg>