<svg xmlns="http://www.w3.org/2000/svg" xmlns:xlink="http://www.w3.org/1999/xlink" fill="none" version="1.1" width="36.24610137939453" height="35.87699890136719" viewBox="0 0 36.24610137939453 35.87699890136719"><defs><clipPath id="master_svg0_2203_05485"><rect x="0" y="0" width="36.24610137939453" height="35.87699890136719" rx="0"/></clipPath></defs><g clip-path="url(#master_svg0_2203_05485)"><g><g style="opacity:0;"><rect x="0" y="0" width="36.24610137939453" height="35.87699890136719" rx="0" fill="#000000" fill-opacity="1" style="mix-blend-mode:passthrough"/></g><g><path d="M17.929701,35.859402C27.8262,35.859402,35.859402,27.8262,35.859402,17.929701C35.859402,8.0332003,27.8262,0,17.929701,0C8.0332003,0,0,8.0332003,0,17.929701C0,27.8262,8.0332003,35.859402,17.929701,35.859402ZM17.929701,32.871101C9.6679697,32.871101,2.9882801,26.191401,2.9882801,17.929701C2.9882801,9.6679697,9.6679697,2.9882801,17.929701,2.9882801C26.191401,2.9882801,32.871101,9.6679697,32.871101,17.929701C32.871101,26.191401,26.191401,32.871101,17.929701,32.871101Z" fill="#FFFFFF" fill-opacity="0.8500000238418579" style="mix-blend-mode:passthrough"/></g><g><path d="M11.636699651837159,9.720700259848632L7.2949199718371585,14.150400119848634C7.101560111837158,14.378899619848632,6.943359851837158,14.712900119848634,6.943359851837158,14.958999619848633C6.943359851837158,15.609399819848633,7.435550211837159,16.101600619848632,8.085940351837158,16.101600619848632C8.384770351837158,16.101600619848632,8.666020351837158,15.960900319848633,8.876950251837158,15.750000019848633L10.687499951837157,13.869099619848633L11.355500251837158,13.148400319848633L11.32030015183716,14.009799919848632L11.32030015183716,25.400399719848632C11.32030015183716,26.033199719848632,11.812499951837157,26.507798719848633,12.462900151837157,26.507798719848633C13.130900351837159,26.507798719848633,13.605500251837158,26.033199719848632,13.605500251837158,25.400399719848632L13.605500251837158,13.992199919848634L13.57030015183716,13.148400319848633L14.238300351837157,13.869099619848633L16.066401051837158,15.767600019848633C16.27730035183716,15.978500319848632,16.55859995183716,16.101600619848632,16.857401351837158,16.101600619848632C17.507799851837156,16.101600619848632,17.964800851837158,15.626999819848633,17.964800851837158,14.958999619848633C17.964800851837158,14.677700019848633,17.824199851837157,14.343799619848632,17.630899851837157,14.150400119848634L13.306599651837157,9.720700259848632C12.88479995183716,9.281249999848633,12.146499651837157,9.210940359848633,11.636699651837159,9.720700259848632ZM24.205099851837158,26.17379971984863L28.511699851837157,21.761699719848632C28.722700851837157,21.533199719848632,28.880899851837157,21.216800719848635,28.880899851837157,20.93549871984863C28.880899851837157,20.267598719848635,28.40620085183716,19.81049871984863,27.755899851837157,19.81049871984863C27.43950085183716,19.81049871984863,27.14060085183716,19.933599719848633,26.94730085183716,20.144500719848633L25.136699851837157,22.007798719848633L24.468799851837158,22.728500719848633L24.50390085183716,21.902299719848635L24.50390085183716,10.494099619848633C24.50390085183716,9.843749999848633,24.011699851837157,9.369139671348632,23.36129985183716,9.369139671348632C22.71089985183716,9.369139671348632,22.218799851837158,9.843749999848633,22.218799851837158,10.494099619848633L22.218799851837158,21.919900719848634L22.25390085183716,22.746099719848633L21.58589985183716,22.007798719848633L19.77540085183716,20.144500719848633C19.54689985183716,19.916000719848633,19.28319985183716,19.81049871984863,18.966800851837156,19.81049871984863C18.29879985183716,19.81049871984863,17.85939985183716,20.267598719848635,17.85939985183716,20.93549871984863C17.85939985183716,21.199199719848632,17.98240185183716,21.51559971984863,18.17580085183716,21.761699719848632L22.500000851837157,26.17379971984863C22.92189985183716,26.595699719848632,23.73049985183716,26.666000719848633,24.205099851837158,26.17379971984863Z" fill="#FFFFFF" fill-opacity="0.8500000238418579" style="mix-blend-mode:passthrough"/></g></g></g></svg>