<svg xmlns="http://www.w3.org/2000/svg" xmlns:xlink="http://www.w3.org/1999/xlink" fill="none" version="1.1" width="36.24610137939453" height="35.87699890136719" viewBox="0 0 36.24610137939453 35.87699890136719"><defs><clipPath id="master_svg0_2203_05476"><rect x="0" y="0" width="36.24610137939453" height="35.87699890136719" rx="0"/></clipPath></defs><g clip-path="url(#master_svg0_2203_05476)"><g><g style="opacity:0;"><rect x="0" y="0" width="36.24610137939453" height="35.87699890136719" rx="0" fill="#000000" fill-opacity="1" style="mix-blend-mode:passthrough"/></g><g><path d="M17.929701,35.859402C27.8262,35.859402,35.859402,27.8262,35.859402,17.929701C35.859402,8.0332003,27.8262,0,17.929701,0C8.0332003,0,0,8.0332003,0,17.929701C0,27.8262,8.0332003,35.859402,17.929701,35.859402ZM17.929701,32.871101C9.6679697,32.871101,2.9882801,26.191401,2.9882801,17.929701C2.9882801,9.6679697,9.6679697,2.9882801,17.929701,2.9882801C26.191401,2.9882801,32.871101,9.6679697,32.871101,17.929701C32.871101,26.191401,26.191401,32.871101,17.929701,32.871101Z" fill="#FFFFFF" fill-opacity="0.8500000238418579" style="mix-blend-mode:passthrough"/></g><g><path d="M10.07229995727539,18.738300000000002C10.07229995727539,23.132799,13.570300057275391,26.648399,17.91209985727539,26.648399C22.25390095727539,26.648399,25.752000957275392,23.132799,25.752000957275392,18.791C25.752000957275392,18.1406,25.189500957275392,17.5956993,24.53910095727539,17.5956993C23.88870095727539,17.5956993,23.32620095727539,18.1406,23.32620095727539,18.791C23.32620095727539,21.7969,20.91799895727539,24.2227,17.91209985727539,24.2227C14.906200457275391,24.2227,12.49800015727539,21.814501,12.49800015727539,18.791C12.49800015727539,15.7852001,14.906200457275391,13.376999900000001,17.91209985727539,13.376999900000001C18.14060015727539,13.376999900000001,18.38669965727539,13.3944998,18.562499957275392,13.4296999L16.83979985727539,15.0995998C16.62890055727539,15.3281002,16.50589945727539,15.5917997,16.50589945727539,15.9258003C16.50589945727539,16.5410004,16.99799915727539,17.0156002,17.613300357275392,17.0156002C17.91209985727539,17.0156002,18.19339945727539,16.875,18.38669965727539,16.6991997L21.796899957275393,13.289099700000001C22.236299957275392,12.8671999,22.20120095727539,12.076199500000001,21.796899957275393,11.6542997L18.42189975727539,8.22655964C18.22850035727539,8.01562023,17.929700857275392,7.875,17.613300357275392,7.875C16.98049925727539,7.875,16.50589945727539,8.36719036,16.50589945727539,9C16.50589945727539,9.29883,16.62890055727539,9.5976601,16.82229995727539,9.7910204L18.07029915727539,11.0565996C17.929700857275392,11.0565996,17.73629955727539,11.0214996,17.57810015727539,11.0214996C13.62300015727539,11.0214996,10.07229995727539,14.414099700000001,10.07229995727539,18.738300000000002Z" fill="#FFFFFF" fill-opacity="0.8500000238418579" style="mix-blend-mode:passthrough"/></g></g></g></svg>