<svg xmlns="http://www.w3.org/2000/svg" xmlns:xlink="http://www.w3.org/1999/xlink" fill="none" version="1.1" width="38.00389862060547" height="37.59960174560547" viewBox="0 0 38.00389862060547 37.59960174560547"><defs><clipPath id="master_svg0_2203_11483"><rect x="0" y="0" width="38.00389862060547" height="37.59960174560547" rx="0"/></clipPath></defs><g clip-path="url(#master_svg0_2203_11483)"><g><g style="opacity:0;"><rect x="0" y="0" width="38.00389862060547" height="37.59960174560547" rx="0" fill="#000000" fill-opacity="1" style="mix-blend-mode:passthrough"/></g><g><path d="M17.033199,37.582001L20.584,37.582001C21.9375,37.582001,22.992201,36.755901,23.291,35.455101L24.0469,32.167999L24.6094,31.9746L27.4746,33.732399C28.617201,34.435501,29.935499,34.277302,30.9023,33.310501L33.3633,30.867201C34.330101,29.9004,34.4883,28.564501,33.785198,27.439501L31.992201,24.591801L32.203098,24.064501L35.4902,23.291C36.773399,22.992201,37.617199,21.919901,37.617199,20.584L37.617199,17.1035C37.617199,15.7676,36.791,14.7129,35.4902,14.3965L32.2383,13.6055L32.0098,13.043L33.8027,10.1953C34.505901,9.0703096,34.3652,7.7519498,33.380901,6.76758L30.919901,4.3066401C29.970699,3.35742,28.6523,3.1816399,27.5098,3.8847699L24.644501,5.64258L24.0469,5.4140601L23.291,2.12695C22.992201,0.82617199,21.9375,0,20.584,0L17.033199,0C15.6797,0,14.625,0.82617199,14.3262,2.12695L13.5527,5.4140601L12.9551,5.64258L10.1074,3.8847699C8.9648399,3.1816399,7.6289101,3.35742,6.6796899,4.3066401L4.23633,6.76758C3.25195,7.7519498,3.09375,9.0703096,3.81445,10.1953L5.5898399,13.043L5.3789101,13.6055L2.12695,14.3965C0.82617199,14.7129,0,15.7676,0,17.1035L0,20.584C0,21.919901,0.84375,22.992201,2.12695,23.291L5.4140601,24.064501L5.60742,24.591801L3.8320301,27.439501C3.11133,28.564501,3.2871101,29.9004,4.2539101,30.867201L6.6972699,33.310501C7.6640601,34.277302,9,34.435501,10.1426,33.732399L12.9902,31.9746L13.5527,32.167999L14.3262,35.455101C14.625,36.755901,15.6797,37.582001,17.033199,37.582001ZM17.314501,34.839802C17.0156,34.839802,16.857401,34.716801,16.804701,34.435501L15.75,30.0762C14.6777,29.8125,13.6758,29.3906,12.9199,28.916L9.0878897,31.2715C8.8769503,31.429701,8.6308603,31.4121,8.4375,31.183599L6.3632798,29.1094C6.16992,28.916,6.1523399,28.705099,6.2929702,28.459L8.6484404,24.6621C8.2441397,23.9238,7.7871099,22.9219,7.5058599,21.8496L3.1464801,20.8125C2.8652301,20.7598,2.7421899,20.601601,2.7421899,20.3027L2.7421899,17.367201C2.7421899,17.0508,2.8476601,16.9102,3.1464801,16.857401L7.4882798,15.8027C7.7695298,14.6602,8.2968798,13.623,8.6132803,12.9727L6.2753901,9.1757803C6.1171899,8.9121103,6.1347699,8.70117,6.3281202,8.4902296L8.41992,6.45117C8.6308603,6.2402301,8.8242197,6.2226601,9.0878897,6.3632798L12.8848,8.6660204C13.6406,8.2441397,14.7129,7.8046899,15.7676,7.5058599L16.804701,3.1464801C16.857401,2.8652301,17.0156,2.7421899,17.314501,2.7421899L20.3027,2.7421899C20.601601,2.7421899,20.7598,2.8652301,20.794901,3.1464801L21.867201,7.5410199C22.957001,7.8222699,23.9062,8.2617197,24.6973,8.6835899L28.5117,6.3632798C28.792999,6.2226601,28.9688,6.2402301,29.1973,6.45117L31.2715,8.4902296C31.482401,8.70117,31.482401,8.9121103,31.3242,9.1757803L28.9863,12.9727C29.320299,13.623,29.830099,14.6602,30.1113,15.8027L34.470699,16.857401C34.751999,16.9102,34.875,17.0508,34.875,17.367201L34.875,20.3027C34.875,20.601601,34.734402,20.7598,34.470699,20.8125L30.0938,21.8496C29.8125,22.9219,29.372999,23.9238,28.9512,24.6621L31.306601,28.459C31.4473,28.705099,31.4473,28.916,31.2363,29.1094L29.179701,31.183599C28.9688,31.4121,28.7402,31.429701,28.5117,31.2715L24.679701,28.916C23.9238,29.3906,22.939501,29.8125,21.867201,30.0762L20.794901,34.435501C20.7598,34.716801,20.601601,34.839802,20.3027,34.839802L17.314501,34.839802ZM18.808599,25.4883C22.517599,25.4883,25.505899,22.5,25.505899,18.791C25.505899,15.082,22.517599,12.0938,18.808599,12.0938C15.0996,12.0938,12.1113,15.082,12.1113,18.791C12.1113,22.5,15.0996,25.4883,18.808599,25.4883ZM18.808599,22.7637C16.6113,22.7637,14.8359,20.9883,14.8359,18.791C14.8359,16.5938,16.6113,14.8184,18.808599,14.8184C21.005899,14.8184,22.7812,16.5938,22.7812,18.791C22.7812,20.9883,21.005899,22.7637,18.808599,22.7637Z" fill="#FFFFFF" fill-opacity="0.8500000238418579" style="mix-blend-mode:passthrough"/></g></g></g></svg>