<svg xmlns="http://www.w3.org/2000/svg" xmlns:xlink="http://www.w3.org/1999/xlink" fill="none" version="1.1" width="55.705101013183594" height="40.23630142211914" viewBox="0 0 55.705101013183594 40.23630142211914"><defs><clipPath id="master_svg0_2203_11499"><rect x="0" y="0" width="55.705101013183594" height="40.23630142211914" rx="0"/></clipPath></defs><g clip-path="url(#master_svg0_2203_11499)"><g><g style="opacity:0;"><rect x="0" y="0" width="55.705101013183594" height="40.23630142211914" rx="0" fill="#000000" fill-opacity="1" style="mix-blend-mode:passthrough"/></g><g><path d="M31.746099,7.2773399L31.746099,8.8769503L30.919901,8.8769503C30.2033,8.8769503,29.5324,8.9411497,28.916,9.0742598L28.916,7.3652301C28.916,4.2714801,27.1758,2.6543,24.2402,2.6543L7.5058599,2.6543C4.5703101,2.6543,2.83008,4.2714801,2.83008,7.3652301L2.83008,17.5781C2.83008,20.689501,4.5878901,22.289101,7.5058599,22.289101L9.3515596,22.289101C10.1074,22.289101,10.7051,22.7285,10.7051,23.7129L10.7051,28.1602L16.3652,23.0977C17.0508,22.482401,17.4902,22.289101,18.439501,22.289101L23.5723,22.289101L23.5723,24.9258L18.334,24.9258L12.4629,29.9531C11.4082,30.867201,10.8281,31.341801,9.9667997,31.341801C8.7539101,31.341801,8.0683603,30.480499,8.0683603,29.144501L8.0683603,24.9258L7.3476601,24.9258C2.93555,24.9258,0,22.2715,0,17.666L0,7.2773399C0,2.67188,2.93555,0,7.3476601,0L24.398399,0C28.810499,0,31.746099,2.67188,31.746099,7.2773399Z" fill="#FFFFFF" fill-opacity="0.8500000238418579" style="mix-blend-mode:passthrough"/></g><g><path d="M17.736299502355955,6.064449816534424L22.078100602355956,17.718799916534422C22.429700602355958,18.685499916534425,21.91990060235596,19.582000916534426,20.88279960235596,19.582000916534426C20.214799602355956,19.582000916534426,19.810499602355957,19.212900916534423,19.54689980235596,18.474599916534423L18.474599802355957,15.380899916534425L13.306599602355957,15.380899916534425L12.234399802355957,18.474599916534423C11.988300302355956,19.212900916534423,11.566399602355958,19.582000916534426,10.898400302355958,19.582000916534426C9.878910062355956,19.582000916534426,9.351559642355957,18.685499916534425,9.703120232355957,17.718799916534422L14.027299902355956,6.064449816534424C14.343799602355958,5.203120236534424,14.994099602355957,4.728519916534424,15.873000102355956,4.728519916534424C16.787099802355957,4.728519916534424,17.419900902355955,5.203120236534424,17.736299502355955,6.064449816534424ZM14.027299902355956,13.218800116534425L17.736299502355955,13.218800116534425L15.881799702355957,7.809810116534424L14.027299902355956,13.218800116534425Z" fill="#FFFFFF" fill-opacity="0.8500000238418579" style="mix-blend-mode:passthrough"/></g><g><path d="M55.31840095727539,16.15430066397705L55.31840095727539,26.54300026397705C55.31840095727539,31.130898263977052,52.38280095727539,33.802701263977056,47.97069895727539,33.802701263977056L47.23239895727539,33.802701263977056L47.23239895727539,38.021500263977046C47.23239895727539,39.357400263977055,46.56449895727539,40.21880026397705,45.351600957275394,40.21880026397705C44.490199957275394,40.21880026397705,43.910197957275386,39.74409926397705,42.85549895727539,38.830102263977054L36.96680095727539,33.802701263977056L30.91990085727539,33.802701263977056C26.29689975727539,33.802701263977056,23.57229995727539,31.148400263977052,23.57229995727539,26.54300026397705L23.57229995727539,16.15430066397705C23.57229995727539,11.54880046397705,26.29689975727539,8.87695026397705,30.91990085727539,8.87695026397705L47.97069895727539,8.87695026397705C52.38280095727539,8.87695026397705,55.31840095727539,11.54880046397705,55.31840095727539,16.15430066397705ZM33.82030095727539,17.296899763977052C33.099601757275394,17.296899763977052,32.57229995727539,17.789100663977052,32.57229995727539,18.45700076397705C32.57229995727539,19.14259926397705,33.099601757275394,19.65230026397705,33.82030095727539,19.65230026397705L35.15619995727539,19.65230026397705C35.63090095727539,21.37500026397705,36.52730195727539,23.00980026397705,37.75780095727539,24.38089926397705C36.56249995727539,25.17189926397705,35.17380095727539,25.752000263977052,33.57419995727539,26.13869926397705C32.88869855727539,26.29689926397705,32.48440165727539,26.94730126397705,32.62499995727539,27.65039926397705C32.81840135727539,28.35350126397705,33.52149965727539,28.669900263977052,34.27730195727539,28.45900026397705C36.19340095727539,28.03709926397705,37.98630095727539,27.22850126397705,39.58589895727539,26.05080126397705C41.115199957275394,27.210900263977052,42.90819895727539,28.01950126397705,44.68360095727539,28.44139926397705C45.54489895727539,28.65229926397705,46.26559795727539,28.38869926397705,46.458999957275395,27.65039926397705C46.65230195727539,26.89450126397705,46.30079995727539,26.29689926397705,45.54489895727539,26.13869926397705C43.94530095727539,25.76950126397705,42.57419995727539,25.189500263977052,41.343799957275394,24.38089926397705C42.591800957275396,23.044901263977053,43.47069895727539,21.42770026397705,43.94530095727539,19.65230026397705L45.29880095727539,19.65230026397705C46.01950095727539,19.65230026397705,46.546901957275395,19.14259926397705,46.546901957275395,18.45700076397705C46.546901957275395,17.789100663977052,46.01950095727539,17.296899763977052,45.29880095727539,17.296899763977052L33.82030095727539,17.296899763977052ZM39.58589895727539,22.88669926397705C38.72460195727539,21.93750026397705,38.039100957275394,20.83009926397705,37.63479995727539,19.65230026397705L41.484401957275395,19.65230026397705C41.08010095727539,20.81250026397705,40.42969895727539,21.919901263977053,39.58589895727539,22.88669926397705ZM37.82809795727539,12.63869956397705C37.23049895727539,12.919899963977052,36.96680095727539,13.640600163977052,37.28319895727539,14.291000363977052L38.12699895727539,16.06640056397705C38.40819895727539,16.69919966397705,39.12889895727539,16.94529916397705,39.74409895727539,16.68160056397705C40.39450095727539,16.347700163977052,40.65819895727539,15.644499763977052,40.341800957275396,15.011699663977051L39.48049895727539,13.25389956397705C39.164100957275394,12.58590026397705,38.46089895727539,12.287099863977051,37.82809795727539,12.63869956397705Z" fill="#FFFFFF" fill-opacity="0.8500000238418579" style="mix-blend-mode:passthrough"/></g></g></g></svg>